<svg width="612" height="456" viewBox="0 0 612 456" fill="none" xmlns="http://www.w3.org/2000/svg">
<g filter="url(#filter0_i_579_159)">
<g clip-path="url(#clip0_579_159)">
<rect width="612" height="456" rx="10" fill="#2F4819"/>
<g opacity="0.8" filter="url(#filter1_f_579_159)">
<ellipse cx="126.669" cy="59.1523" rx="153.5" ry="17" transform="rotate(-15.0011 126.669 59.1523)" fill="#F5B937"/>
</g>
<g opacity="0.5" filter="url(#filter2_f_579_159)">
<ellipse cx="133.1" cy="14.7408" rx="133.1" ry="14.7408" transform="matrix(-0.965921 -0.258838 -0.258838 0.965921 744.76 58.9028)" fill="#F5B937"/>
</g>
<g opacity="0.6" filter="url(#filter3_f_579_159)">
<path d="M409.663 62.4207C412.093 71.4895 347.681 96.6298 265.794 118.573C183.907 140.516 209.655 127.642 207.225 118.573C204.795 109.504 175.107 107.675 256.994 85.7317C338.88 63.7885 407.232 53.3518 409.663 62.4207Z" fill="#FADB99"/>
</g>
<rect x="50" y="246" width="520" height="75" rx="10" fill="#1E2E10"/>
<rect x="38" y="89" width="543" height="103" rx="10" fill="#FAFAFA"/>
<rect x="62.25" y="108.25" width="70.5" height="67.5" rx="4.75" fill="#F2F2F2" stroke="#CCCCCC" stroke-width="0.5"/>
<path d="M85 136L91 130M91 130L97 136M91 130V148M109 148L103 154M103 154L97 148M103 154V136" stroke="#416422" stroke-width="1.5" stroke-linecap="round" stroke-linejoin="round"/>
<path d="M159.368 127.466C160.1 127.67 160.676 128.042 161.096 128.582C161.516 129.11 161.726 129.782 161.726 130.598C161.726 131.69 161.312 132.53 160.484 133.118C159.668 133.706 158.474 134 156.902 134H150.89V121.4H156.542C157.982 121.4 159.092 121.688 159.872 122.264C160.664 122.84 161.06 123.638 161.06 124.658C161.06 125.318 160.904 125.888 160.592 126.368C160.292 126.848 159.884 127.214 159.368 127.466ZM152.69 122.858V126.89H156.38C157.304 126.89 158.012 126.722 158.504 126.386C159.008 126.038 159.26 125.534 159.26 124.874C159.26 124.214 159.008 123.716 158.504 123.38C158.012 123.032 157.304 122.858 156.38 122.858H152.69ZM156.83 132.542C157.85 132.542 158.618 132.374 159.134 132.038C159.65 131.702 159.908 131.174 159.908 130.454C159.908 129.05 158.882 128.348 156.83 128.348H152.69V132.542H156.83ZM165.917 126.062C166.217 125.51 166.661 125.09 167.249 124.802C167.837 124.514 168.551 124.37 169.391 124.37V126.044C169.295 126.032 169.163 126.026 168.995 126.026C168.059 126.026 167.321 126.308 166.781 126.872C166.253 127.424 165.989 128.216 165.989 129.248V134H164.261V124.46H165.917V126.062ZM175.519 134.108C174.571 134.108 173.719 133.898 172.963 133.478C172.207 133.058 171.613 132.482 171.181 131.75C170.761 131.006 170.551 130.166 170.551 129.23C170.551 128.294 170.761 127.46 171.181 126.728C171.613 125.984 172.207 125.408 172.963 125C173.719 124.58 174.571 124.37 175.519 124.37C176.467 124.37 177.313 124.58 178.057 125C178.813 125.408 179.401 125.984 179.821 126.728C180.253 127.46 180.469 128.294 180.469 129.23C180.469 130.166 180.253 131.006 179.821 131.75C179.401 132.482 178.813 133.058 178.057 133.478C177.313 133.898 176.467 134.108 175.519 134.108ZM175.519 132.596C176.131 132.596 176.677 132.458 177.157 132.182C177.649 131.894 178.033 131.498 178.309 130.994C178.585 130.478 178.723 129.89 178.723 129.23C178.723 128.57 178.585 127.988 178.309 127.484C178.033 126.968 177.649 126.572 177.157 126.296C176.677 126.02 176.131 125.882 175.519 125.882C174.907 125.882 174.355 126.02 173.863 126.296C173.383 126.572 172.999 126.968 172.711 127.484C172.435 127.988 172.297 128.57 172.297 129.23C172.297 129.89 172.435 130.478 172.711 130.994C172.999 131.498 173.383 131.894 173.863 132.182C174.355 132.458 174.907 132.596 175.519 132.596ZM197.031 124.46L193.467 134H191.811L189.057 126.764L186.267 134H184.611L181.065 124.46H182.703L185.475 132.056L188.355 124.46H189.813L192.639 132.092L195.483 124.46H197.031ZM201.397 134.108C200.617 134.108 199.867 134.006 199.147 133.802C198.427 133.586 197.863 133.316 197.455 132.992L198.175 131.624C198.595 131.924 199.105 132.164 199.705 132.344C200.305 132.524 200.911 132.614 201.523 132.614C203.035 132.614 203.791 132.182 203.791 131.318C203.791 131.03 203.689 130.802 203.485 130.634C203.281 130.466 203.023 130.346 202.711 130.274C202.411 130.19 201.979 130.1 201.415 130.004C200.647 129.884 200.017 129.746 199.525 129.59C199.045 129.434 198.631 129.17 198.283 128.798C197.935 128.426 197.761 127.904 197.761 127.232C197.761 126.368 198.121 125.678 198.841 125.162C199.561 124.634 200.527 124.37 201.739 124.37C202.375 124.37 203.011 124.448 203.647 124.604C204.283 124.76 204.805 124.97 205.213 125.234L204.475 126.602C203.695 126.098 202.777 125.846 201.721 125.846C200.989 125.846 200.431 125.966 200.047 126.206C199.663 126.446 199.471 126.764 199.471 127.16C199.471 127.472 199.579 127.718 199.795 127.898C200.011 128.078 200.275 128.21 200.587 128.294C200.911 128.378 201.361 128.474 201.937 128.582C202.705 128.714 203.323 128.858 203.791 129.014C204.271 129.158 204.679 129.41 205.015 129.77C205.351 130.13 205.519 130.634 205.519 131.282C205.519 132.146 205.147 132.836 204.403 133.352C203.671 133.856 202.669 134.108 201.397 134.108ZM216.301 129.284C216.301 129.416 216.289 129.59 216.265 129.806H208.525C208.633 130.646 208.999 131.324 209.623 131.84C210.259 132.344 211.045 132.596 211.981 132.596C213.121 132.596 214.039 132.212 214.735 131.444L215.689 132.56C215.257 133.064 214.717 133.448 214.069 133.712C213.433 133.976 212.719 134.108 211.927 134.108C210.919 134.108 210.025 133.904 209.245 133.496C208.465 133.076 207.859 132.494 207.427 131.75C207.007 131.006 206.797 130.166 206.797 129.23C206.797 128.306 207.001 127.472 207.409 126.728C207.829 125.984 208.399 125.408 209.119 125C209.851 124.58 210.673 124.37 211.585 124.37C212.497 124.37 213.307 124.58 214.015 125C214.735 125.408 215.293 125.984 215.689 126.728C216.097 127.472 216.301 128.324 216.301 129.284ZM211.585 125.828C210.757 125.828 210.061 126.08 209.497 126.584C208.945 127.088 208.621 127.748 208.525 128.564H214.645C214.549 127.76 214.219 127.106 213.655 126.602C213.103 126.086 212.413 125.828 211.585 125.828ZM227.62 134.108C226.672 134.108 225.82 133.898 225.064 133.478C224.308 133.058 223.714 132.482 223.282 131.75C222.862 131.006 222.652 130.166 222.652 129.23C222.652 128.294 222.862 127.46 223.282 126.728C223.714 125.984 224.308 125.408 225.064 125C225.82 124.58 226.672 124.37 227.62 124.37C228.568 124.37 229.414 124.58 230.158 125C230.914 125.408 231.502 125.984 231.922 126.728C232.354 127.46 232.57 128.294 232.57 129.23C232.57 130.166 232.354 131.006 231.922 131.75C231.502 132.482 230.914 133.058 230.158 133.478C229.414 133.898 228.568 134.108 227.62 134.108ZM227.62 132.596C228.232 132.596 228.778 132.458 229.258 132.182C229.75 131.894 230.134 131.498 230.41 130.994C230.686 130.478 230.824 129.89 230.824 129.23C230.824 128.57 230.686 127.988 230.41 127.484C230.134 126.968 229.75 126.572 229.258 126.296C228.778 126.02 228.232 125.882 227.62 125.882C227.008 125.882 226.456 126.02 225.964 126.296C225.484 126.572 225.1 126.968 224.812 127.484C224.536 127.988 224.398 128.57 224.398 129.23C224.398 129.89 224.536 130.478 224.812 130.994C225.1 131.498 225.484 131.894 225.964 132.182C226.456 132.458 227.008 132.596 227.62 132.596ZM243.852 124.46V134H242.214V132.56C241.866 133.052 241.404 133.436 240.828 133.712C240.264 133.976 239.646 134.108 238.974 134.108C237.702 134.108 236.7 133.76 235.968 133.064C235.236 132.356 234.87 131.318 234.87 129.95V124.46H236.598V129.752C236.598 130.676 236.82 131.378 237.264 131.858C237.708 132.326 238.344 132.56 239.172 132.56C240.084 132.56 240.804 132.284 241.332 131.732C241.86 131.18 242.124 130.4 242.124 129.392V124.46H243.852ZM248.798 126.062C249.098 125.51 249.542 125.09 250.13 124.802C250.718 124.514 251.432 124.37 252.272 124.37V126.044C252.176 126.032 252.044 126.026 251.876 126.026C250.94 126.026 250.202 126.308 249.662 126.872C249.134 127.424 248.87 128.216 248.87 129.248V134H247.142V124.46H248.798V126.062ZM265.245 134.144C263.985 134.144 262.845 133.868 261.825 133.316C260.817 132.752 260.025 131.984 259.449 131.012C258.873 130.028 258.585 128.924 258.585 127.7C258.585 126.476 258.873 125.378 259.449 124.406C260.025 123.422 260.823 122.654 261.843 122.102C262.863 121.538 264.003 121.256 265.263 121.256C266.247 121.256 267.147 121.424 267.963 121.76C268.779 122.084 269.475 122.57 270.051 123.218L268.881 124.352C267.933 123.356 266.751 122.858 265.335 122.858C264.399 122.858 263.553 123.068 262.797 123.488C262.041 123.908 261.447 124.49 261.015 125.234C260.595 125.966 260.385 126.788 260.385 127.7C260.385 128.612 260.595 129.44 261.015 130.184C261.447 130.916 262.041 131.492 262.797 131.912C263.553 132.332 264.399 132.542 265.335 132.542C266.739 132.542 267.921 132.038 268.881 131.03L270.051 132.164C269.475 132.812 268.773 133.304 267.945 133.64C267.129 133.976 266.229 134.144 265.245 134.144ZM276.048 134.108C275.1 134.108 274.248 133.898 273.492 133.478C272.736 133.058 272.142 132.482 271.71 131.75C271.29 131.006 271.08 130.166 271.08 129.23C271.08 128.294 271.29 127.46 271.71 126.728C272.142 125.984 272.736 125.408 273.492 125C274.248 124.58 275.1 124.37 276.048 124.37C276.996 124.37 277.842 124.58 278.586 125C279.342 125.408 279.93 125.984 280.35 126.728C280.782 127.46 280.998 128.294 280.998 129.23C280.998 130.166 280.782 131.006 280.35 131.75C279.93 132.482 279.342 133.058 278.586 133.478C277.842 133.898 276.996 134.108 276.048 134.108ZM276.048 132.596C276.66 132.596 277.206 132.458 277.686 132.182C278.178 131.894 278.562 131.498 278.838 130.994C279.114 130.478 279.252 129.89 279.252 129.23C279.252 128.57 279.114 127.988 278.838 127.484C278.562 126.968 278.178 126.572 277.686 126.296C277.206 126.02 276.66 125.882 276.048 125.882C275.436 125.882 274.884 126.02 274.392 126.296C273.912 126.572 273.528 126.968 273.24 127.484C272.964 127.988 272.826 128.57 272.826 129.23C272.826 129.89 272.964 130.478 273.24 130.994C273.528 131.498 273.912 131.894 274.392 132.182C274.884 132.458 275.436 132.596 276.048 132.596ZM283.388 120.644H285.116V134H283.388V120.644ZM288.415 120.644H290.143V134H288.415V120.644ZM302.065 129.284C302.065 129.416 302.053 129.59 302.029 129.806H294.289C294.397 130.646 294.763 131.324 295.387 131.84C296.023 132.344 296.809 132.596 297.745 132.596C298.885 132.596 299.803 132.212 300.499 131.444L301.453 132.56C301.021 133.064 300.481 133.448 299.833 133.712C299.197 133.976 298.483 134.108 297.691 134.108C296.683 134.108 295.789 133.904 295.009 133.496C294.229 133.076 293.623 132.494 293.191 131.75C292.771 131.006 292.561 130.166 292.561 129.23C292.561 128.306 292.765 127.472 293.173 126.728C293.593 125.984 294.163 125.408 294.883 125C295.615 124.58 296.437 124.37 297.349 124.37C298.261 124.37 299.071 124.58 299.779 125C300.499 125.408 301.057 125.984 301.453 126.728C301.861 127.472 302.065 128.324 302.065 129.284ZM297.349 125.828C296.521 125.828 295.825 126.08 295.261 126.584C294.709 127.088 294.385 127.748 294.289 128.564H300.409C300.313 127.76 299.983 127.106 299.419 126.602C298.867 126.086 298.177 125.828 297.349 125.828ZM308.622 134.108C307.65 134.108 306.78 133.898 306.012 133.478C305.256 133.058 304.662 132.482 304.23 131.75C303.798 131.006 303.582 130.166 303.582 129.23C303.582 128.294 303.798 127.46 304.23 126.728C304.662 125.984 305.256 125.408 306.012 125C306.78 124.58 307.65 124.37 308.622 124.37C309.486 124.37 310.254 124.544 310.926 124.892C311.61 125.24 312.138 125.744 312.51 126.404L311.196 127.25C310.896 126.794 310.524 126.452 310.08 126.224C309.636 125.996 309.144 125.882 308.604 125.882C307.98 125.882 307.416 126.02 306.912 126.296C306.42 126.572 306.03 126.968 305.742 127.484C305.466 127.988 305.328 128.57 305.328 129.23C305.328 129.902 305.466 130.496 305.742 131.012C306.03 131.516 306.42 131.906 306.912 132.182C307.416 132.458 307.98 132.596 308.604 132.596C309.144 132.596 309.636 132.482 310.08 132.254C310.524 132.026 310.896 131.684 311.196 131.228L312.51 132.056C312.138 132.716 311.61 133.226 310.926 133.586C310.254 133.934 309.486 134.108 308.622 134.108ZM320.234 133.442C319.982 133.658 319.67 133.826 319.298 133.946C318.926 134.054 318.542 134.108 318.146 134.108C317.186 134.108 316.442 133.85 315.914 133.334C315.386 132.818 315.122 132.08 315.122 131.12V125.882H313.502V124.46H315.122V122.372H316.85V124.46H319.586V125.882H316.85V131.048C316.85 131.564 316.976 131.96 317.228 132.236C317.492 132.512 317.864 132.65 318.344 132.65C318.872 132.65 319.322 132.5 319.694 132.2L320.234 133.442ZM322.324 124.46H324.052V134H322.324V124.46ZM323.188 122.624C322.852 122.624 322.57 122.516 322.342 122.3C322.126 122.084 322.018 121.82 322.018 121.508C322.018 121.196 322.126 120.932 322.342 120.716C322.57 120.488 322.852 120.374 323.188 120.374C323.524 120.374 323.8 120.482 324.016 120.698C324.244 120.902 324.358 121.16 324.358 121.472C324.358 121.796 324.244 122.072 324.016 122.3C323.8 122.516 323.524 122.624 323.188 122.624ZM331.437 134.108C330.489 134.108 329.637 133.898 328.881 133.478C328.125 133.058 327.531 132.482 327.099 131.75C326.679 131.006 326.469 130.166 326.469 129.23C326.469 128.294 326.679 127.46 327.099 126.728C327.531 125.984 328.125 125.408 328.881 125C329.637 124.58 330.489 124.37 331.437 124.37C332.385 124.37 333.231 124.58 333.975 125C334.731 125.408 335.319 125.984 335.739 126.728C336.171 127.46 336.387 128.294 336.387 129.23C336.387 130.166 336.171 131.006 335.739 131.75C335.319 132.482 334.731 133.058 333.975 133.478C333.231 133.898 332.385 134.108 331.437 134.108ZM331.437 132.596C332.049 132.596 332.595 132.458 333.075 132.182C333.567 131.894 333.951 131.498 334.227 130.994C334.503 130.478 334.641 129.89 334.641 129.23C334.641 128.57 334.503 127.988 334.227 127.484C333.951 126.968 333.567 126.572 333.075 126.296C332.595 126.02 332.049 125.882 331.437 125.882C330.825 125.882 330.273 126.02 329.781 126.296C329.301 126.572 328.917 126.968 328.629 127.484C328.353 127.988 328.215 128.57 328.215 129.23C328.215 129.89 328.353 130.478 328.629 130.994C328.917 131.498 329.301 131.894 329.781 132.182C330.273 132.458 330.825 132.596 331.437 132.596ZM343.871 124.37C345.083 124.37 346.043 124.724 346.751 125.432C347.471 126.128 347.831 127.154 347.831 128.51V134H346.103V128.708C346.103 127.784 345.881 127.088 345.437 126.62C344.993 126.152 344.357 125.918 343.529 125.918C342.593 125.918 341.855 126.194 341.315 126.746C340.775 127.286 340.505 128.066 340.505 129.086V134H338.777V124.46H340.433V125.9C340.781 125.408 341.249 125.03 341.837 124.766C342.437 124.502 343.115 124.37 343.871 124.37ZM353.765 134.108C352.985 134.108 352.235 134.006 351.515 133.802C350.795 133.586 350.231 133.316 349.823 132.992L350.543 131.624C350.963 131.924 351.473 132.164 352.073 132.344C352.673 132.524 353.279 132.614 353.891 132.614C355.403 132.614 356.159 132.182 356.159 131.318C356.159 131.03 356.057 130.802 355.853 130.634C355.649 130.466 355.391 130.346 355.079 130.274C354.779 130.19 354.347 130.1 353.783 130.004C353.015 129.884 352.385 129.746 351.893 129.59C351.413 129.434 350.999 129.17 350.651 128.798C350.303 128.426 350.129 127.904 350.129 127.232C350.129 126.368 350.489 125.678 351.209 125.162C351.929 124.634 352.895 124.37 354.107 124.37C354.743 124.37 355.379 124.448 356.015 124.604C356.651 124.76 357.173 124.97 357.581 125.234L356.843 126.602C356.063 126.098 355.145 125.846 354.089 125.846C353.357 125.846 352.799 125.966 352.415 126.206C352.031 126.446 351.839 126.764 351.839 127.16C351.839 127.472 351.947 127.718 352.163 127.898C352.379 128.078 352.643 128.21 352.955 128.294C353.279 128.378 353.729 128.474 354.305 128.582C355.073 128.714 355.691 128.858 356.159 129.014C356.639 129.158 357.047 129.41 357.383 129.77C357.719 130.13 357.887 130.634 357.887 131.282C357.887 132.146 357.515 132.836 356.771 133.352C356.039 133.856 355.037 134.108 353.765 134.108Z" fill="#262626"/>
<path d="M158.504 152.824H152.008V157.224H157.8V158.248H152.008V163H150.824V151.8H158.504V152.824ZM161.641 156.232C162.169 155.112 163.241 154.52 164.793 154.52V155.624C164.697 155.624 164.601 155.608 164.521 155.608C162.761 155.608 161.689 156.728 161.689 158.712V163H160.553V154.584H161.641V156.232ZM170.212 163.08C167.748 163.08 165.924 161.288 165.924 158.792C165.924 156.296 167.748 154.52 170.212 154.52C172.676 154.52 174.484 156.296 174.484 158.792C174.484 161.288 172.676 163.08 170.212 163.08ZM170.212 162.072C172.004 162.072 173.332 160.76 173.332 158.792C173.332 156.824 172.004 155.512 170.212 155.512C168.42 155.512 167.076 156.824 167.076 158.792C167.076 160.76 168.42 162.072 170.212 162.072ZM187.299 154.52C189.347 154.52 190.691 155.704 190.691 158.12V163H189.555V158.232C189.555 156.456 188.659 155.544 187.139 155.544C185.411 155.544 184.323 156.664 184.323 158.584V163H183.187V158.232C183.187 156.456 182.291 155.544 180.755 155.544C179.043 155.544 177.939 156.664 177.939 158.584V163H176.803V154.584H177.891V156.12C178.483 155.112 179.571 154.52 180.979 154.52C182.371 154.52 183.459 155.112 183.971 156.296C184.579 155.208 185.779 154.52 187.299 154.52ZM200.215 163.08C198.823 163.08 197.479 162.632 196.791 162.04L197.303 161.144C197.975 161.672 199.111 162.088 200.295 162.088C201.895 162.088 202.551 161.544 202.551 160.712C202.551 158.52 197.095 160.248 197.095 156.92C197.095 155.544 198.279 154.52 200.423 154.52C201.511 154.52 202.695 154.824 203.399 155.304L202.903 156.216C202.167 155.704 201.287 155.496 200.423 155.496C198.903 155.496 198.231 156.088 198.231 156.888C198.231 159.16 203.687 157.448 203.687 160.68C203.687 162.136 202.407 163.08 200.215 163.08ZM209.819 161.672L210.219 162.488C209.771 162.888 209.099 163.08 208.443 163.08C206.859 163.08 205.979 162.184 205.979 160.632V155.544H204.475V154.584H205.979V152.744H207.115V154.584H209.675V155.544H207.115V160.568C207.115 161.56 207.627 162.104 208.571 162.104C209.035 162.104 209.499 161.96 209.819 161.672ZM215.231 154.52C217.407 154.52 218.639 155.608 218.639 157.784V163H217.551V161.688C217.039 162.552 216.047 163.08 214.655 163.08C212.751 163.08 211.583 162.088 211.583 160.632C211.583 159.336 212.415 158.248 214.831 158.248H217.503V157.736C217.503 156.296 216.687 155.512 215.119 155.512C214.031 155.512 213.007 155.896 212.319 156.504L211.807 155.656C212.655 154.936 213.903 154.52 215.231 154.52ZM214.831 162.184C216.111 162.184 217.055 161.576 217.503 160.472V159.096H214.863C213.231 159.096 212.703 159.736 212.703 160.6C212.703 161.576 213.487 162.184 214.831 162.184ZM226.061 154.52C228.461 154.52 230.253 156.248 230.253 158.792C230.253 161.352 228.461 163.08 226.061 163.08C224.717 163.08 223.565 162.504 222.861 161.416V166.104H221.725V154.584H222.813V156.248C223.501 155.128 224.669 154.52 226.061 154.52ZM225.981 162.072C227.757 162.072 229.117 160.76 229.117 158.792C229.117 156.84 227.757 155.512 225.981 155.512C224.189 155.512 222.845 156.84 222.845 158.792C222.845 160.76 224.189 162.072 225.981 162.072ZM232.568 163V151.128H233.704V163H232.568ZM244.209 158.792C244.209 158.888 244.193 159.016 244.193 159.144H237.153C237.281 160.904 238.625 162.072 240.465 162.072C241.489 162.072 242.401 161.704 243.041 160.968L243.681 161.704C242.929 162.6 241.761 163.08 240.433 163.08C237.809 163.08 236.017 161.288 236.017 158.792C236.017 156.296 237.761 154.52 240.129 154.52C242.497 154.52 244.209 156.264 244.209 158.792ZM240.129 155.496C238.497 155.496 237.297 156.648 237.153 158.296H243.121C242.977 156.648 241.777 155.496 240.129 155.496ZM257.413 154.584H258.501V161.976C258.501 164.872 257.077 166.184 254.293 166.184C252.757 166.184 251.253 165.72 250.373 164.888L250.949 164.024C251.749 164.744 252.965 165.176 254.261 165.176C256.389 165.176 257.365 164.2 257.365 162.12V161.048C256.661 162.12 255.461 162.68 254.085 162.68C251.685 162.68 249.861 161 249.861 158.584C249.861 156.168 251.685 154.52 254.085 154.52C255.493 154.52 256.709 155.096 257.413 156.2V154.584ZM254.197 161.672C256.053 161.672 257.397 160.408 257.397 158.584C257.397 156.76 256.053 155.512 254.197 155.512C252.341 155.512 251.013 156.76 251.013 158.584C251.013 160.408 252.341 161.672 254.197 161.672ZM262.766 156.232C263.294 155.112 264.366 154.52 265.918 154.52V155.624C265.822 155.624 265.726 155.608 265.646 155.608C263.886 155.608 262.814 156.728 262.814 158.712V163H261.678V154.584H262.766V156.232ZM270.294 154.52C272.47 154.52 273.702 155.608 273.702 157.784V163H272.614V161.688C272.102 162.552 271.11 163.08 269.718 163.08C267.814 163.08 266.646 162.088 266.646 160.632C266.646 159.336 267.478 158.248 269.894 158.248H272.566V157.736C272.566 156.296 271.75 155.512 270.182 155.512C269.094 155.512 268.07 155.896 267.382 156.504L266.87 155.656C267.718 154.936 268.966 154.52 270.294 154.52ZM269.894 162.184C271.174 162.184 272.118 161.576 272.566 160.472V159.096H269.926C268.294 159.096 267.766 159.736 267.766 160.6C267.766 161.576 268.55 162.184 269.894 162.184ZM277.363 152.744C276.899 152.744 276.531 152.376 276.531 151.928C276.531 151.496 276.899 151.128 277.363 151.128C277.827 151.128 278.195 151.48 278.195 151.912C278.195 152.376 277.843 152.744 277.363 152.744ZM276.787 163V154.584H277.923V163H276.787ZM285.372 154.52C287.42 154.52 288.828 155.704 288.828 158.12V163H287.692V158.232C287.692 156.456 286.764 155.544 285.164 155.544C283.356 155.544 282.22 156.664 282.22 158.584V163H281.084V154.584H282.172V156.136C282.78 155.112 283.916 154.52 285.372 154.52ZM294.168 163.08C292.776 163.08 291.432 162.632 290.744 162.04L291.256 161.144C291.928 161.672 293.064 162.088 294.248 162.088C295.848 162.088 296.504 161.544 296.504 160.712C296.504 158.52 291.048 160.248 291.048 156.92C291.048 155.544 292.232 154.52 294.376 154.52C295.464 154.52 296.648 154.824 297.352 155.304L296.856 156.216C296.12 155.704 295.24 155.496 294.376 155.496C292.856 155.496 292.184 156.088 292.184 156.888C292.184 159.16 297.64 157.448 297.64 160.68C297.64 162.136 296.36 163.08 294.168 163.08ZM307.96 161.672L308.36 162.488C307.912 162.888 307.24 163.08 306.584 163.08C305 163.08 304.12 162.184 304.12 160.632V155.544H302.616V154.584H304.12V152.744H305.256V154.584H307.816V155.544H305.256V160.568C305.256 161.56 305.768 162.104 306.712 162.104C307.176 162.104 307.64 161.96 307.96 161.672ZM313.571 163.08C311.107 163.08 309.283 161.288 309.283 158.792C309.283 156.296 311.107 154.52 313.571 154.52C316.035 154.52 317.843 156.296 317.843 158.792C317.843 161.288 316.035 163.08 313.571 163.08ZM313.571 162.072C315.363 162.072 316.691 160.76 316.691 158.792C316.691 156.824 315.363 155.512 313.571 155.512C311.779 155.512 310.435 156.824 310.435 158.792C310.435 160.76 311.779 162.072 313.571 162.072ZM327.134 152.008C326.158 152.008 325.646 152.552 325.646 153.592V154.584H328.238V155.544H325.678V163H324.542V155.544H323.038V154.584H324.542V153.544C324.542 152.04 325.438 151.048 327.086 151.048C327.71 151.048 328.35 151.224 328.766 151.576L328.382 152.424C328.062 152.152 327.614 152.008 327.134 152.008ZM330.86 156.232C331.388 155.112 332.46 154.52 334.012 154.52V155.624C333.916 155.624 333.82 155.608 333.74 155.608C331.98 155.608 330.908 156.728 330.908 158.712V163H329.772V154.584H330.86V156.232ZM343.334 158.792C343.334 158.888 343.318 159.016 343.318 159.144H336.278C336.406 160.904 337.75 162.072 339.59 162.072C340.614 162.072 341.526 161.704 342.166 160.968L342.806 161.704C342.054 162.6 340.886 163.08 339.558 163.08C336.934 163.08 335.142 161.288 335.142 158.792C335.142 156.296 336.886 154.52 339.254 154.52C341.622 154.52 343.334 156.264 343.334 158.792ZM339.254 155.496C337.622 155.496 336.422 156.648 336.278 158.296H342.246C342.102 156.648 340.902 155.496 339.254 155.496ZM347.903 163.08C346.511 163.08 345.167 162.632 344.479 162.04L344.991 161.144C345.663 161.672 346.799 162.088 347.983 162.088C349.583 162.088 350.239 161.544 350.239 160.712C350.239 158.52 344.783 160.248 344.783 156.92C344.783 155.544 345.967 154.52 348.111 154.52C349.199 154.52 350.383 154.824 351.087 155.304L350.591 156.216C349.855 155.704 348.975 155.496 348.111 155.496C346.591 155.496 345.919 156.088 345.919 156.888C345.919 159.16 351.375 157.448 351.375 160.68C351.375 162.136 350.095 163.08 347.903 163.08ZM357.763 154.52C359.811 154.52 361.219 155.704 361.219 158.12V163H360.083V158.232C360.083 156.456 359.155 155.544 357.555 155.544C355.747 155.544 354.611 156.664 354.611 158.584V163H353.475V151.128H354.611V156.056C355.235 155.08 356.339 154.52 357.763 154.52ZM374.442 154.584H375.562L371.818 163H370.65L366.922 154.584H368.106L371.258 161.752L374.442 154.584ZM384.272 158.792C384.272 158.888 384.256 159.016 384.256 159.144H377.216C377.344 160.904 378.688 162.072 380.528 162.072C381.552 162.072 382.464 161.704 383.104 160.968L383.744 161.704C382.992 162.6 381.824 163.08 380.496 163.08C377.872 163.08 376.08 161.288 376.08 158.792C376.08 156.296 377.824 154.52 380.192 154.52C382.56 154.52 384.272 156.264 384.272 158.792ZM380.192 155.496C378.56 155.496 377.36 156.648 377.216 158.296H383.184C383.04 156.648 381.84 155.496 380.192 155.496ZM393.288 154.584H394.376V161.976C394.376 164.872 392.952 166.184 390.168 166.184C388.632 166.184 387.128 165.72 386.248 164.888L386.824 164.024C387.624 164.744 388.84 165.176 390.136 165.176C392.264 165.176 393.24 164.2 393.24 162.12V161.048C392.536 162.12 391.336 162.68 389.96 162.68C387.56 162.68 385.736 161 385.736 158.584C385.736 156.168 387.56 154.52 389.96 154.52C391.368 154.52 392.584 155.096 393.288 156.2V154.584ZM390.072 161.672C391.928 161.672 393.272 160.408 393.272 158.584C393.272 156.76 391.928 155.512 390.072 155.512C388.216 155.512 386.888 156.76 386.888 158.584C386.888 160.408 388.216 161.672 390.072 161.672ZM404.897 158.792C404.897 158.888 404.881 159.016 404.881 159.144H397.841C397.969 160.904 399.313 162.072 401.153 162.072C402.177 162.072 403.089 161.704 403.729 160.968L404.369 161.704C403.617 162.6 402.449 163.08 401.121 163.08C398.497 163.08 396.705 161.288 396.705 158.792C396.705 156.296 398.449 154.52 400.817 154.52C403.185 154.52 404.897 156.264 404.897 158.792ZM400.817 155.496C399.185 155.496 397.985 156.648 397.841 158.296H403.809C403.665 156.648 402.465 155.496 400.817 155.496ZM411.241 161.672L411.641 162.488C411.193 162.888 410.521 163.08 409.865 163.08C408.281 163.08 407.401 162.184 407.401 160.632V155.544H405.897V154.584H407.401V152.744H408.537V154.584H411.097V155.544H408.537V160.568C408.537 161.56 409.049 162.104 409.993 162.104C410.457 162.104 410.921 161.96 411.241 161.672ZM416.653 154.52C418.829 154.52 420.061 155.608 420.061 157.784V163H418.973V161.688C418.461 162.552 417.469 163.08 416.077 163.08C414.173 163.08 413.005 162.088 413.005 160.632C413.005 159.336 413.837 158.248 416.253 158.248H418.925V157.736C418.925 156.296 418.109 155.512 416.541 155.512C415.453 155.512 414.429 155.896 413.741 156.504L413.229 155.656C414.077 154.936 415.325 154.52 416.653 154.52ZM416.253 162.184C417.533 162.184 418.477 161.576 418.925 160.472V159.096H416.285C414.653 159.096 414.125 159.736 414.125 160.6C414.125 161.576 414.909 162.184 416.253 162.184ZM427.483 154.52C429.883 154.52 431.675 156.248 431.675 158.792C431.675 161.336 429.883 163.08 427.483 163.08C426.091 163.08 424.923 162.472 424.235 161.336V163H423.147V151.128H424.283V156.184C424.987 155.096 426.139 154.52 427.483 154.52ZM427.403 162.072C429.179 162.072 430.539 160.76 430.539 158.792C430.539 156.824 429.179 155.512 427.403 155.512C425.611 155.512 424.267 156.824 424.267 158.792C424.267 160.76 425.611 162.072 427.403 162.072ZM433.99 163V151.128H435.126V163H433.99ZM445.631 158.792C445.631 158.888 445.615 159.016 445.615 159.144H438.575C438.703 160.904 440.047 162.072 441.887 162.072C442.911 162.072 443.823 161.704 444.463 160.968L445.103 161.704C444.351 162.6 443.183 163.08 441.855 163.08C439.231 163.08 437.439 161.288 437.439 158.792C437.439 156.296 439.183 154.52 441.551 154.52C443.919 154.52 445.631 156.264 445.631 158.792ZM441.551 155.496C439.919 155.496 438.719 156.648 438.575 158.296H444.543C444.399 156.648 443.199 155.496 441.551 155.496ZM450.199 163.08C448.807 163.08 447.463 162.632 446.775 162.04L447.287 161.144C447.959 161.672 449.095 162.088 450.279 162.088C451.879 162.088 452.535 161.544 452.535 160.712C452.535 158.52 447.079 160.248 447.079 156.92C447.079 155.544 448.263 154.52 450.407 154.52C451.495 154.52 452.679 154.824 453.383 155.304L452.887 156.216C452.151 155.704 451.271 155.496 450.407 155.496C448.887 155.496 448.215 156.088 448.215 156.888C448.215 159.16 453.671 157.448 453.671 160.68C453.671 162.136 452.391 163.08 450.199 163.08ZM462.903 154.52C465.079 154.52 466.311 155.608 466.311 157.784V163H465.223V161.688C464.711 162.552 463.719 163.08 462.327 163.08C460.423 163.08 459.255 162.088 459.255 160.632C459.255 159.336 460.087 158.248 462.503 158.248H465.175V157.736C465.175 156.296 464.359 155.512 462.791 155.512C461.703 155.512 460.679 155.896 459.991 156.504L459.479 155.656C460.327 154.936 461.575 154.52 462.903 154.52ZM462.503 162.184C463.783 162.184 464.727 161.576 465.175 160.472V159.096H462.535C460.903 159.096 460.375 159.736 460.375 160.6C460.375 161.576 461.159 162.184 462.503 162.184ZM473.685 154.52C475.733 154.52 477.141 155.704 477.141 158.12V163H476.005V158.232C476.005 156.456 475.077 155.544 473.477 155.544C471.669 155.544 470.533 156.664 470.533 158.584V163H469.397V154.584H470.485V156.136C471.093 155.112 472.229 154.52 473.685 154.52ZM486.769 151.128H487.905V163H486.817V161.336C486.129 162.472 484.961 163.08 483.569 163.08C481.169 163.08 479.377 161.336 479.377 158.792C479.377 156.248 481.169 154.52 483.569 154.52C484.913 154.52 486.065 155.096 486.769 156.184V151.128ZM483.665 162.072C485.441 162.072 486.785 160.76 486.785 158.792C486.785 156.824 485.441 155.512 483.665 155.512C481.873 155.512 480.529 156.824 480.529 158.792C480.529 160.76 481.873 162.072 483.665 162.072ZM497.512 163.08C496.12 163.08 494.776 162.632 494.088 162.04L494.6 161.144C495.272 161.672 496.408 162.088 497.592 162.088C499.192 162.088 499.848 161.544 499.848 160.712C499.848 158.52 494.392 160.248 494.392 156.92C494.392 155.544 495.576 154.52 497.72 154.52C498.808 154.52 499.992 154.824 500.696 155.304L500.2 156.216C499.464 155.704 498.584 155.496 497.72 155.496C496.2 155.496 495.528 156.088 495.528 156.888C495.528 159.16 500.984 157.448 500.984 160.68C500.984 162.136 499.704 163.08 497.512 163.08ZM510.428 158.792C510.428 158.888 510.412 159.016 510.412 159.144H503.372C503.5 160.904 504.844 162.072 506.684 162.072C507.708 162.072 508.62 161.704 509.26 160.968L509.9 161.704C509.148 162.6 507.98 163.08 506.652 163.08C504.028 163.08 502.236 161.288 502.236 158.792C502.236 156.296 503.98 154.52 506.348 154.52C508.716 154.52 510.428 156.264 510.428 158.792ZM506.348 155.496C504.716 155.496 503.516 156.648 503.372 158.296H509.34C509.196 156.648 507.996 155.496 506.348 155.496ZM515.45 154.52C517.626 154.52 518.858 155.608 518.858 157.784V163H517.77V161.688C517.258 162.552 516.266 163.08 514.874 163.08C512.97 163.08 511.802 162.088 511.802 160.632C511.802 159.336 512.634 158.248 515.05 158.248H517.722V157.736C517.722 156.296 516.906 155.512 515.338 155.512C514.25 155.512 513.226 155.896 512.538 156.504L512.026 155.656C512.874 154.936 514.122 154.52 515.45 154.52ZM515.05 162.184C516.33 162.184 517.274 161.576 517.722 160.472V159.096H515.082C513.45 159.096 512.922 159.736 512.922 160.6C512.922 161.576 513.706 162.184 515.05 162.184ZM524.727 152.008C523.751 152.008 523.239 152.552 523.239 153.592V154.584H525.831V155.544H523.271V163H522.135V155.544H520.631V154.584H522.135V153.544C522.135 152.04 523.031 151.048 524.679 151.048C525.303 151.048 525.943 151.224 526.359 151.576L525.975 152.424C525.655 152.152 525.207 152.008 524.727 152.008ZM530.665 163.08C528.201 163.08 526.377 161.288 526.377 158.792C526.377 156.296 528.201 154.52 530.665 154.52C533.129 154.52 534.937 156.296 534.937 158.792C534.937 161.288 533.129 163.08 530.665 163.08ZM530.665 162.072C532.457 162.072 533.785 160.76 533.785 158.792C533.785 156.824 532.457 155.512 530.665 155.512C528.873 155.512 527.529 156.824 527.529 158.792C527.529 160.76 528.873 162.072 530.665 162.072ZM540.696 163.08C538.232 163.08 536.408 161.288 536.408 158.792C536.408 156.296 538.232 154.52 540.696 154.52C543.16 154.52 544.968 156.296 544.968 158.792C544.968 161.288 543.16 163.08 540.696 163.08ZM540.696 162.072C542.488 162.072 543.816 160.76 543.816 158.792C543.816 156.824 542.488 155.512 540.696 155.512C538.904 155.512 537.56 156.824 537.56 158.792C537.56 160.76 538.904 162.072 540.696 162.072ZM553.831 151.128H554.967V163H553.879V161.336C553.191 162.472 552.023 163.08 550.631 163.08C548.231 163.08 546.439 161.336 546.439 158.792C546.439 156.248 548.231 154.52 550.631 154.52C551.975 154.52 553.127 155.096 553.831 156.184V151.128ZM550.727 162.072C552.503 162.072 553.847 160.76 553.847 158.792C553.847 156.824 552.503 155.512 550.727 155.512C548.935 155.512 547.591 156.824 547.591 158.792C547.591 160.76 548.935 162.072 550.727 162.072Z" fill="#545454"/>
<rect x="38" y="337" width="543" height="103" rx="10" fill="#FAFAFA"/>
<rect x="62.25" y="356.25" width="70.5" height="67.5" rx="4.75" fill="#F2F2F2" stroke="#CCCCCC" stroke-width="0.5"/>
<path d="M92.3971 397.2C92.3971 397.677 92.2023 398.135 91.8555 398.473C91.5087 398.81 91.0383 399 90.5478 399C90.0574 399 89.587 398.81 89.2402 398.473C88.8934 398.135 88.6986 397.677 88.6986 397.2M92.3971 397.2C92.3971 396.723 92.2023 396.265 91.8555 395.927C91.5087 395.59 91.0383 395.4 90.5478 395.4C90.0574 395.4 89.587 395.59 89.2402 395.927C88.8934 396.265 88.6986 396.723 88.6986 397.2M92.3971 397.2H99.7942M88.6986 397.2H86.387C86.0191 397.2 85.6664 397.058 85.4063 396.805C85.1461 396.551 85 396.208 85 395.85V391.8M99.7942 397.2H102.568M99.7942 397.2V391.8M85 391.8V382.639C84.9981 382.31 85.1214 381.992 85.3462 381.747C85.571 381.502 85.8812 381.347 86.2168 381.311C90.326 380.896 94.4682 380.896 98.5774 381.311C99.2739 381.381 99.7942 381.957 99.7942 382.639V383.788M85 391.8H99.7942M106.267 397.2C106.267 397.677 106.072 398.135 105.725 398.473C105.378 398.81 104.908 399 104.417 399C103.927 399 103.457 398.81 103.11 398.473C102.763 398.135 102.568 397.677 102.568 397.2M106.267 397.2C106.267 396.723 106.072 396.265 105.725 395.927C105.378 395.59 104.908 395.4 104.417 395.4C103.927 395.4 103.457 395.59 103.11 395.927C102.763 396.265 102.568 396.723 102.568 397.2M106.267 397.2H107.654C108.419 397.2 109.045 396.595 108.997 395.851C108.75 391.889 107.379 388.07 105.036 384.82C104.813 384.516 104.522 384.264 104.184 384.086C103.847 383.907 103.472 383.805 103.088 383.788H99.7942M99.7942 383.788V391.8" stroke="#416422" stroke-width="1.5" stroke-linecap="round" stroke-linejoin="round"/>
<path d="M152.69 370.966V375.358H159.008V376.906H152.69V382H150.89V369.4H159.782V370.966H152.69ZM165.204 372.37C166.524 372.37 167.532 372.694 168.228 373.342C168.936 373.99 169.29 374.956 169.29 376.24V382H167.652V380.74C167.364 381.184 166.95 381.526 166.41 381.766C165.882 381.994 165.252 382.108 164.52 382.108C163.452 382.108 162.594 381.85 161.946 381.334C161.31 380.818 160.992 380.14 160.992 379.3C160.992 378.46 161.298 377.788 161.91 377.284C162.522 376.768 163.494 376.51 164.826 376.51H167.562V376.168C167.562 375.424 167.346 374.854 166.914 374.458C166.482 374.062 165.846 373.864 165.006 373.864C164.442 373.864 163.89 373.96 163.35 374.152C162.81 374.332 162.354 374.578 161.982 374.89L161.262 373.594C161.754 373.198 162.342 372.898 163.026 372.694C163.71 372.478 164.436 372.37 165.204 372.37ZM164.808 380.776C165.468 380.776 166.038 380.632 166.518 380.344C166.998 380.044 167.346 379.624 167.562 379.084V377.752H164.898C163.434 377.752 162.702 378.244 162.702 379.228C162.702 379.708 162.888 380.086 163.26 380.362C163.632 380.638 164.148 380.776 164.808 380.776ZM175.224 382.108C174.444 382.108 173.694 382.006 172.974 381.802C172.254 381.586 171.69 381.316 171.282 380.992L172.002 379.624C172.422 379.924 172.932 380.164 173.532 380.344C174.132 380.524 174.738 380.614 175.35 380.614C176.862 380.614 177.618 380.182 177.618 379.318C177.618 379.03 177.516 378.802 177.312 378.634C177.108 378.466 176.85 378.346 176.538 378.274C176.238 378.19 175.806 378.1 175.242 378.004C174.474 377.884 173.844 377.746 173.352 377.59C172.872 377.434 172.458 377.17 172.11 376.798C171.762 376.426 171.588 375.904 171.588 375.232C171.588 374.368 171.948 373.678 172.668 373.162C173.388 372.634 174.354 372.37 175.566 372.37C176.202 372.37 176.838 372.448 177.474 372.604C178.11 372.76 178.632 372.97 179.04 373.234L178.302 374.602C177.522 374.098 176.604 373.846 175.548 373.846C174.816 373.846 174.258 373.966 173.874 374.206C173.49 374.446 173.298 374.764 173.298 375.16C173.298 375.472 173.406 375.718 173.622 375.898C173.838 376.078 174.102 376.21 174.414 376.294C174.738 376.378 175.188 376.474 175.764 376.582C176.532 376.714 177.15 376.858 177.618 377.014C178.098 377.158 178.506 377.41 178.842 377.77C179.178 378.13 179.346 378.634 179.346 379.282C179.346 380.146 178.974 380.836 178.23 381.352C177.498 381.856 176.496 382.108 175.224 382.108ZM186.869 381.442C186.617 381.658 186.305 381.826 185.933 381.946C185.561 382.054 185.177 382.108 184.781 382.108C183.821 382.108 183.077 381.85 182.549 381.334C182.021 380.818 181.757 380.08 181.757 379.12V373.882H180.137V372.46H181.757V370.372H183.485V372.46H186.221V373.882H183.485V379.048C183.485 379.564 183.611 379.96 183.863 380.236C184.127 380.512 184.499 380.65 184.979 380.65C185.507 380.65 185.957 380.5 186.329 380.2L186.869 381.442ZM194.044 369.4H199.354C200.686 369.4 201.868 369.664 202.9 370.192C203.932 370.72 204.73 371.464 205.294 372.424C205.87 373.372 206.158 374.464 206.158 375.7C206.158 376.936 205.87 378.034 205.294 378.994C204.73 379.942 203.932 380.68 202.9 381.208C201.868 381.736 200.686 382 199.354 382H194.044V369.4ZM199.246 380.434C200.266 380.434 201.16 380.236 201.928 379.84C202.708 379.444 203.308 378.892 203.728 378.184C204.148 377.464 204.358 376.636 204.358 375.7C204.358 374.764 204.148 373.942 203.728 373.234C203.308 372.514 202.708 371.956 201.928 371.56C201.16 371.164 200.266 370.966 199.246 370.966H195.844V380.434H199.246ZM217.285 377.284C217.285 377.416 217.273 377.59 217.249 377.806H209.509C209.617 378.646 209.983 379.324 210.607 379.84C211.243 380.344 212.029 380.596 212.965 380.596C214.105 380.596 215.023 380.212 215.719 379.444L216.673 380.56C216.241 381.064 215.701 381.448 215.053 381.712C214.417 381.976 213.703 382.108 212.911 382.108C211.903 382.108 211.009 381.904 210.229 381.496C209.449 381.076 208.843 380.494 208.411 379.75C207.991 379.006 207.781 378.166 207.781 377.23C207.781 376.306 207.985 375.472 208.393 374.728C208.813 373.984 209.383 373.408 210.103 373C210.835 372.58 211.657 372.37 212.569 372.37C213.481 372.37 214.291 372.58 214.999 373C215.719 373.408 216.277 373.984 216.673 374.728C217.081 375.472 217.285 376.324 217.285 377.284ZM212.569 373.828C211.741 373.828 211.045 374.08 210.481 374.584C209.929 375.088 209.605 375.748 209.509 376.564H215.629C215.533 375.76 215.203 375.106 214.639 374.602C214.087 374.086 213.397 373.828 212.569 373.828ZM219.685 368.644H221.413V382H219.685V368.644ZM224.712 372.46H226.44V382H224.712V372.46ZM225.576 370.624C225.24 370.624 224.958 370.516 224.73 370.3C224.514 370.084 224.406 369.82 224.406 369.508C224.406 369.196 224.514 368.932 224.73 368.716C224.958 368.488 225.24 368.374 225.576 368.374C225.912 368.374 226.188 368.482 226.404 368.698C226.632 368.902 226.746 369.16 226.746 369.472C226.746 369.796 226.632 370.072 226.404 370.3C226.188 370.516 225.912 370.624 225.576 370.624ZM238.182 372.46L234.006 382H232.242L228.066 372.46H229.866L233.142 380.11L236.49 372.46H238.182ZM248.153 377.284C248.153 377.416 248.141 377.59 248.117 377.806H240.377C240.485 378.646 240.851 379.324 241.475 379.84C242.111 380.344 242.897 380.596 243.833 380.596C244.973 380.596 245.891 380.212 246.587 379.444L247.541 380.56C247.109 381.064 246.569 381.448 245.921 381.712C245.285 381.976 244.571 382.108 243.779 382.108C242.771 382.108 241.877 381.904 241.097 381.496C240.317 381.076 239.711 380.494 239.279 379.75C238.859 379.006 238.649 378.166 238.649 377.23C238.649 376.306 238.853 375.472 239.261 374.728C239.681 373.984 240.251 373.408 240.971 373C241.703 372.58 242.525 372.37 243.437 372.37C244.349 372.37 245.159 372.58 245.867 373C246.587 373.408 247.145 373.984 247.541 374.728C247.949 375.472 248.153 376.324 248.153 377.284ZM243.437 373.828C242.609 373.828 241.913 374.08 241.349 374.584C240.797 375.088 240.473 375.748 240.377 376.564H246.497C246.401 375.76 246.071 375.106 245.507 374.602C244.955 374.086 244.265 373.828 243.437 373.828ZM252.208 374.062C252.508 373.51 252.952 373.09 253.54 372.802C254.128 372.514 254.842 372.37 255.682 372.37V374.044C255.586 374.032 255.454 374.026 255.286 374.026C254.35 374.026 253.612 374.308 253.072 374.872C252.544 375.424 252.28 376.216 252.28 377.248V382H250.552V372.46H252.208V374.062ZM266.641 372.46L262.015 382.954C261.607 383.926 261.127 384.61 260.575 385.006C260.035 385.402 259.381 385.6 258.613 385.6C258.145 385.6 257.689 385.522 257.245 385.366C256.813 385.222 256.453 385.006 256.165 384.718L256.903 383.422C257.395 383.89 257.965 384.124 258.613 384.124C259.033 384.124 259.381 384.01 259.657 383.782C259.945 383.566 260.203 383.188 260.431 382.648L260.737 381.982L256.525 372.46H258.325L261.655 380.092L264.949 372.46H266.641Z" fill="#262626"/>
<path d="M158.504 400.824H152.008V405.224H157.8V406.248H152.008V411H150.824V399.8H158.504V400.824ZM161.641 404.232C162.169 403.112 163.241 402.52 164.793 402.52V403.624C164.697 403.624 164.601 403.608 164.521 403.608C162.761 403.608 161.689 404.728 161.689 406.712V411H160.553V402.584H161.641V404.232ZM174.116 406.792C174.116 406.888 174.1 407.016 174.1 407.144H167.06C167.188 408.904 168.532 410.072 170.372 410.072C171.396 410.072 172.308 409.704 172.948 408.968L173.588 409.704C172.836 410.6 171.668 411.08 170.34 411.08C167.716 411.08 165.924 409.288 165.924 406.792C165.924 404.296 167.668 402.52 170.036 402.52C172.404 402.52 174.116 404.264 174.116 406.792ZM170.036 403.496C168.404 403.496 167.204 404.648 167.06 406.296H173.028C172.884 404.648 171.684 403.496 170.036 403.496ZM178.684 411.08C177.292 411.08 175.948 410.632 175.26 410.04L175.772 409.144C176.444 409.672 177.58 410.088 178.764 410.088C180.364 410.088 181.02 409.544 181.02 408.712C181.02 406.52 175.564 408.248 175.564 404.92C175.564 403.544 176.748 402.52 178.892 402.52C179.98 402.52 181.164 402.824 181.868 403.304L181.372 404.216C180.636 403.704 179.756 403.496 178.892 403.496C177.372 403.496 176.7 404.088 176.7 404.888C176.7 407.16 182.156 405.448 182.156 408.68C182.156 410.136 180.876 411.08 178.684 411.08ZM188.544 402.52C190.592 402.52 192 403.704 192 406.12V411H190.864V406.232C190.864 404.456 189.936 403.544 188.336 403.544C186.528 403.544 185.392 404.664 185.392 406.584V411H184.256V399.128H185.392V404.056C186.016 403.08 187.12 402.52 188.544 402.52ZM195.084 411V399.128H196.22V411H195.084ZM205.333 402.584H206.453L202.245 412.008C201.541 413.656 200.645 414.184 199.445 414.184C198.661 414.184 197.909 413.928 197.397 413.416L197.925 412.568C198.341 412.984 198.853 413.208 199.461 413.208C200.213 413.208 200.725 412.856 201.205 411.8L201.573 410.984L197.813 402.584H198.997L202.165 409.736L205.333 402.584ZM216.576 402.52C218.976 402.52 220.768 404.248 220.768 406.792C220.768 409.352 218.976 411.08 216.576 411.08C215.232 411.08 214.08 410.504 213.376 409.416V414.104H212.24V402.584H213.328V404.248C214.016 403.128 215.184 402.52 216.576 402.52ZM216.496 410.072C218.272 410.072 219.632 408.76 219.632 406.792C219.632 404.84 218.272 403.512 216.496 403.512C214.704 403.512 213.36 404.84 213.36 406.792C213.36 408.76 214.704 410.072 216.496 410.072ZM225.981 402.52C228.157 402.52 229.389 403.608 229.389 405.784V411H228.301V409.688C227.789 410.552 226.797 411.08 225.405 411.08C223.501 411.08 222.333 410.088 222.333 408.632C222.333 407.336 223.165 406.248 225.581 406.248H228.253V405.736C228.253 404.296 227.437 403.512 225.869 403.512C224.781 403.512 223.757 403.896 223.069 404.504L222.557 403.656C223.405 402.936 224.653 402.52 225.981 402.52ZM225.581 410.184C226.861 410.184 227.805 409.576 228.253 408.472V407.096H225.613C223.981 407.096 223.453 407.736 223.453 408.6C223.453 409.576 224.237 410.184 225.581 410.184ZM235.963 411.08C233.451 411.08 231.627 409.304 231.627 406.792C231.627 404.28 233.451 402.52 235.963 402.52C237.387 402.52 238.587 403.08 239.259 404.184L238.411 404.76C237.835 403.912 236.939 403.512 235.963 403.512C234.123 403.512 232.779 404.824 232.779 406.792C232.779 408.776 234.123 410.072 235.963 410.072C236.939 410.072 237.835 409.688 238.411 408.84L239.259 409.416C238.587 410.504 237.387 411.08 235.963 411.08ZM247.877 411L244.485 406.776L242.501 408.6V411H241.365V399.128H242.501V407.176L247.525 402.584H248.933L245.333 406.024L249.269 411H247.877ZM253.762 402.52C255.938 402.52 257.17 403.608 257.17 405.784V411H256.082V409.688C255.57 410.552 254.578 411.08 253.186 411.08C251.282 411.08 250.114 410.088 250.114 408.632C250.114 407.336 250.946 406.248 253.362 406.248H256.034V405.736C256.034 404.296 255.218 403.512 253.65 403.512C252.562 403.512 251.538 403.896 250.85 404.504L250.338 403.656C251.186 402.936 252.434 402.52 253.762 402.52ZM253.362 410.184C254.642 410.184 255.586 409.576 256.034 408.472V407.096H253.394C251.762 407.096 251.234 407.736 251.234 408.6C251.234 409.576 252.018 410.184 253.362 410.184ZM266.96 402.584H268.048V409.976C268.048 412.872 266.624 414.184 263.84 414.184C262.304 414.184 260.8 413.72 259.92 412.888L260.496 412.024C261.296 412.744 262.512 413.176 263.808 413.176C265.936 413.176 266.912 412.2 266.912 410.12V409.048C266.208 410.12 265.008 410.68 263.632 410.68C261.232 410.68 259.408 409 259.408 406.584C259.408 404.168 261.232 402.52 263.632 402.52C265.04 402.52 266.256 403.096 266.96 404.2V402.584ZM263.744 409.672C265.6 409.672 266.944 408.408 266.944 406.584C266.944 404.76 265.6 403.512 263.744 403.512C261.888 403.512 260.56 404.76 260.56 406.584C260.56 408.408 261.888 409.672 263.744 409.672ZM278.569 406.792C278.569 406.888 278.553 407.016 278.553 407.144H271.513C271.641 408.904 272.985 410.072 274.825 410.072C275.849 410.072 276.761 409.704 277.401 408.968L278.041 409.704C277.289 410.6 276.121 411.08 274.793 411.08C272.169 411.08 270.377 409.288 270.377 406.792C270.377 404.296 272.121 402.52 274.489 402.52C276.857 402.52 278.569 404.264 278.569 406.792ZM274.489 403.496C272.857 403.496 271.657 404.648 271.513 406.296H277.481C277.337 404.648 276.137 403.496 274.489 403.496ZM287.425 399.128H288.561V411H287.473V409.336C286.785 410.472 285.617 411.08 284.225 411.08C281.825 411.08 280.033 409.336 280.033 406.792C280.033 404.248 281.825 402.52 284.225 402.52C285.569 402.52 286.721 403.096 287.425 404.184V399.128ZM284.321 410.072C286.097 410.072 287.441 408.76 287.441 406.792C287.441 404.824 286.097 403.512 284.321 403.512C282.529 403.512 281.185 404.824 281.185 406.792C281.185 408.76 282.529 410.072 284.321 410.072ZM298.856 402.52C301.032 402.52 302.264 403.608 302.264 405.784V411H301.176V409.688C300.664 410.552 299.672 411.08 298.28 411.08C296.376 411.08 295.208 410.088 295.208 408.632C295.208 407.336 296.04 406.248 298.456 406.248H301.128V405.736C301.128 404.296 300.312 403.512 298.744 403.512C297.656 403.512 296.632 403.896 295.944 404.504L295.432 403.656C296.28 402.936 297.528 402.52 298.856 402.52ZM298.456 410.184C299.736 410.184 300.68 409.576 301.128 408.472V407.096H298.488C296.856 407.096 296.328 407.736 296.328 408.6C296.328 409.576 297.112 410.184 298.456 410.184ZM309.638 402.52C311.686 402.52 313.094 403.704 313.094 406.12V411H311.958V406.232C311.958 404.456 311.03 403.544 309.43 403.544C307.622 403.544 306.486 404.664 306.486 406.584V411H305.35V402.584H306.438V404.136C307.046 403.112 308.182 402.52 309.638 402.52ZM322.722 399.128H323.858V411H322.77V409.336C322.082 410.472 320.914 411.08 319.522 411.08C317.122 411.08 315.33 409.336 315.33 406.792C315.33 404.248 317.122 402.52 319.522 402.52C320.866 402.52 322.018 403.096 322.722 404.184V399.128ZM319.618 410.072C321.394 410.072 322.738 408.76 322.738 406.792C322.738 404.824 321.394 403.512 319.618 403.512C317.826 403.512 316.482 404.824 316.482 406.792C316.482 408.76 317.826 410.072 319.618 410.072ZM333.465 411.08C332.073 411.08 330.729 410.632 330.041 410.04L330.553 409.144C331.225 409.672 332.361 410.088 333.545 410.088C335.145 410.088 335.801 409.544 335.801 408.712C335.801 406.52 330.345 408.248 330.345 404.92C330.345 403.544 331.529 402.52 333.673 402.52C334.761 402.52 335.945 402.824 336.649 403.304L336.153 404.216C335.417 403.704 334.537 403.496 333.673 403.496C332.153 403.496 331.481 404.088 331.481 404.888C331.481 407.16 336.937 405.448 336.937 408.68C336.937 410.136 335.657 411.08 333.465 411.08ZM343.325 402.52C345.373 402.52 346.781 403.704 346.781 406.12V411H345.645V406.232C345.645 404.456 344.717 403.544 343.117 403.544C341.309 403.544 340.173 404.664 340.173 406.584V411H339.037V399.128H340.173V404.056C340.797 403.08 341.901 402.52 343.325 402.52ZM350.441 400.744C349.977 400.744 349.609 400.376 349.609 399.928C349.609 399.496 349.977 399.128 350.441 399.128C350.905 399.128 351.273 399.48 351.273 399.912C351.273 400.376 350.921 400.744 350.441 400.744ZM349.865 411V402.584H351.001V411H349.865ZM358.498 402.52C360.898 402.52 362.69 404.248 362.69 406.792C362.69 409.352 360.898 411.08 358.498 411.08C357.154 411.08 356.002 410.504 355.298 409.416V414.104H354.162V402.584H355.25V404.248C355.938 403.128 357.106 402.52 358.498 402.52ZM358.418 410.072C360.194 410.072 361.554 408.76 361.554 406.792C361.554 404.84 360.194 403.512 358.418 403.512C356.626 403.512 355.282 404.84 355.282 406.792C355.282 408.76 356.626 410.072 358.418 410.072ZM369.342 402.52C371.742 402.52 373.534 404.248 373.534 406.792C373.534 409.352 371.742 411.08 369.342 411.08C367.998 411.08 366.846 410.504 366.142 409.416V414.104H365.006V402.584H366.094V404.248C366.782 403.128 367.95 402.52 369.342 402.52ZM369.262 410.072C371.038 410.072 372.398 408.76 372.398 406.792C372.398 404.84 371.038 403.512 369.262 403.512C367.47 403.512 366.126 404.84 366.126 406.792C366.126 408.76 367.47 410.072 369.262 410.072ZM383.194 406.792C383.194 406.888 383.178 407.016 383.178 407.144H376.138C376.266 408.904 377.61 410.072 379.45 410.072C380.474 410.072 381.386 409.704 382.026 408.968L382.666 409.704C381.914 410.6 380.746 411.08 379.418 411.08C376.794 411.08 375.002 409.288 375.002 406.792C375.002 404.296 376.746 402.52 379.114 402.52C381.482 402.52 383.194 404.264 383.194 406.792ZM379.114 403.496C377.482 403.496 376.282 404.648 376.138 406.296H382.106C381.962 404.648 380.762 403.496 379.114 403.496ZM392.05 399.128H393.186V411H392.098V409.336C391.41 410.472 390.242 411.08 388.85 411.08C386.45 411.08 384.658 409.336 384.658 406.792C384.658 404.248 386.45 402.52 388.85 402.52C390.194 402.52 391.346 403.096 392.05 404.184V399.128ZM388.946 410.072C390.722 410.072 392.066 408.76 392.066 406.792C392.066 404.824 390.722 403.512 388.946 403.512C387.154 403.512 385.81 404.824 385.81 406.792C385.81 408.76 387.154 410.072 388.946 410.072ZM404.569 409.672L404.969 410.488C404.521 410.888 403.849 411.08 403.193 411.08C401.609 411.08 400.729 410.184 400.729 408.632V403.544H399.225V402.584H400.729V400.744H401.865V402.584H404.425V403.544H401.865V408.568C401.865 409.56 402.377 410.104 403.321 410.104C403.785 410.104 404.249 409.96 404.569 409.672ZM410.18 411.08C407.716 411.08 405.892 409.288 405.892 406.792C405.892 404.296 407.716 402.52 410.18 402.52C412.644 402.52 414.452 404.296 414.452 406.792C414.452 409.288 412.644 411.08 410.18 411.08ZM410.18 410.072C411.972 410.072 413.3 408.76 413.3 406.792C413.3 404.824 411.972 403.512 410.18 403.512C408.388 403.512 407.044 404.824 407.044 406.792C407.044 408.76 408.388 410.072 410.18 410.072ZM426.911 402.584H428.031L423.823 412.008C423.119 413.656 422.223 414.184 421.023 414.184C420.239 414.184 419.487 413.928 418.975 413.416L419.503 412.568C419.919 412.984 420.431 413.208 421.039 413.208C421.791 413.208 422.303 412.856 422.783 411.8L423.151 410.984L419.391 402.584H420.575L423.743 409.736L426.911 402.584ZM432.837 411.08C430.373 411.08 428.549 409.288 428.549 406.792C428.549 404.296 430.373 402.52 432.837 402.52C435.301 402.52 437.109 404.296 437.109 406.792C437.109 409.288 435.301 411.08 432.837 411.08ZM432.837 410.072C434.629 410.072 435.957 408.76 435.957 406.792C435.957 404.824 434.629 403.512 432.837 403.512C431.045 403.512 429.701 404.824 429.701 406.792C429.701 408.76 431.045 410.072 432.837 410.072ZM445.876 402.584H447.012V411H445.924V409.464C445.332 410.488 444.244 411.08 442.9 411.08C440.756 411.08 439.348 409.88 439.348 407.464V402.584H440.484V407.352C440.484 409.144 441.412 410.056 443.012 410.056C444.772 410.056 445.876 408.92 445.876 407V402.584ZM451.281 404.232C451.809 403.112 452.881 402.52 454.433 402.52V403.624C454.337 403.624 454.241 403.608 454.161 403.608C452.401 403.608 451.329 404.728 451.329 406.712V411H450.193V402.584H451.281V404.232ZM467.347 399.128H468.483V411H467.395V409.336C466.707 410.472 465.539 411.08 464.147 411.08C461.747 411.08 459.955 409.336 459.955 406.792C459.955 404.248 461.747 402.52 464.147 402.52C465.491 402.52 466.643 403.096 467.347 404.184V399.128ZM464.243 410.072C466.019 410.072 467.363 408.76 467.363 406.792C467.363 404.824 466.019 403.512 464.243 403.512C462.451 403.512 461.107 404.824 461.107 406.792C461.107 408.76 462.451 410.072 464.243 410.072ZM475.087 411.08C472.623 411.08 470.799 409.288 470.799 406.792C470.799 404.296 472.623 402.52 475.087 402.52C477.551 402.52 479.359 404.296 479.359 406.792C479.359 409.288 477.551 411.08 475.087 411.08ZM475.087 410.072C476.879 410.072 478.207 408.76 478.207 406.792C478.207 404.824 476.879 403.512 475.087 403.512C473.295 403.512 471.951 404.824 471.951 406.792C471.951 408.76 473.295 410.072 475.087 410.072ZM485.118 411.08C482.654 411.08 480.83 409.288 480.83 406.792C480.83 404.296 482.654 402.52 485.118 402.52C487.582 402.52 489.39 404.296 489.39 406.792C489.39 409.288 487.582 411.08 485.118 411.08ZM485.118 410.072C486.91 410.072 488.238 408.76 488.238 406.792C488.238 404.824 486.91 403.512 485.118 403.512C483.326 403.512 481.982 404.824 481.982 406.792C481.982 408.76 483.326 410.072 485.118 410.072ZM492.797 404.232C493.325 403.112 494.397 402.52 495.949 402.52V403.624C495.853 403.624 495.757 403.608 495.677 403.608C493.917 403.608 492.845 404.728 492.845 406.712V411H491.709V402.584H492.797V404.232Z" fill="#545454"/>
<g clip-path="url(#clip1_579_159)">
<rect x="46" y="218.733" width="543" height="103" rx="10" transform="rotate(-4.51376 46 218.733)" fill="#FAFAFA"/>
<rect x="71.6897" y="236.015" width="70.5" height="67.5" rx="4.75" transform="rotate(-4.51376 71.6897 236.015)" fill="#F2F2F2" stroke="#CCCCCC" stroke-width="0.5"/>
<path d="M96.1722 256.978L97.8822 256.843C98.5115 256.793 99.0935 257.168 99.3036 257.754L99.9143 259.468M99.9143 259.468C106.772 258.736 113.698 258.948 120.493 260.101C119.712 263.171 118.734 266.171 117.571 269.082L103.731 270.174M99.9143 259.468L103.731 270.174M103.731 270.174C102.749 270.251 101.838 270.711 101.198 271.451C100.558 272.191 100.241 273.152 100.318 274.121L119.75 272.589M102.457 277.631C102.476 277.873 102.397 278.113 102.237 278.298C102.077 278.483 101.849 278.598 101.603 278.617C101.358 278.637 101.115 278.559 100.928 278.401C100.741 278.244 100.625 278.019 100.606 277.777C100.587 277.534 100.666 277.294 100.826 277.109C100.986 276.924 101.214 276.809 101.459 276.79C101.705 276.77 101.948 276.848 102.135 277.006C102.322 277.164 102.438 277.388 102.457 277.631ZM118.188 276.39C118.207 276.632 118.128 276.872 117.968 277.057C117.808 277.242 117.58 277.357 117.334 277.377C117.089 277.396 116.846 277.318 116.659 277.161C116.472 277.003 116.356 276.778 116.337 276.536C116.318 276.293 116.397 276.053 116.557 275.868C116.717 275.683 116.945 275.568 117.19 275.549C117.436 275.53 117.679 275.607 117.866 275.765C118.053 275.923 118.168 276.147 118.188 276.39Z" stroke="#416422" stroke-width="1.5" stroke-linecap="round" stroke-linejoin="round"/>
<path d="M169.837 250.937L163.161 251.464L162.027 254.714L160.179 254.86L164.876 241.85L166.652 241.709L173.35 253.82L171.466 253.969L169.837 250.937ZM169.095 249.551L165.9 243.61L163.676 249.979L169.095 249.551ZM182.806 239.676L183.857 252.99L182.206 253.121L182.087 251.613C181.746 252.17 181.293 252.609 180.729 252.93C180.164 253.252 179.529 253.44 178.823 253.496C177.902 253.569 177.061 253.431 176.299 253.081C175.537 252.732 174.918 252.209 174.442 251.513C173.976 250.803 173.706 249.97 173.631 249.013C173.555 248.056 173.692 247.196 174.041 246.435C174.402 245.672 174.931 245.058 175.629 244.594C176.327 244.13 177.136 243.861 178.057 243.788C178.739 243.734 179.377 243.816 179.972 244.034C180.566 244.24 181.075 244.579 181.497 245.051L181.084 239.812L182.806 239.676ZM178.848 251.977C179.446 251.93 179.98 251.75 180.448 251.436C180.916 251.11 181.268 250.685 181.503 250.161C181.738 249.625 181.829 249.028 181.777 248.37C181.725 247.712 181.542 247.142 181.227 246.662C180.911 246.169 180.497 245.804 179.985 245.568C179.473 245.332 178.918 245.237 178.32 245.284C177.71 245.332 177.17 245.513 176.701 245.827C176.245 246.14 175.893 246.565 175.646 247.102C175.411 247.626 175.319 248.217 175.371 248.875C175.423 249.533 175.607 250.109 175.923 250.601C176.249 251.081 176.663 251.446 177.165 251.695C177.677 251.931 178.238 252.026 178.848 251.977ZM195.038 238.71L196.089 252.025L194.438 252.155L194.319 250.648C193.978 251.204 193.525 251.643 192.96 251.965C192.396 252.286 191.761 252.475 191.055 252.53C190.134 252.603 189.292 252.465 188.53 252.116C187.769 251.767 187.15 251.244 186.673 250.547C186.208 249.838 185.938 249.004 185.862 248.047C185.786 247.09 185.923 246.231 186.272 245.469C186.633 244.706 187.163 244.093 187.86 243.628C188.558 243.164 189.367 242.895 190.289 242.823C190.97 242.769 191.609 242.851 192.204 243.069C192.798 243.275 193.306 243.614 193.729 244.086L193.315 238.846L195.038 238.71ZM191.079 251.012C191.678 250.965 192.211 250.784 192.68 250.47C193.148 250.144 193.499 249.719 193.735 249.195C193.969 248.659 194.061 248.062 194.009 247.404C193.957 246.746 193.773 246.177 193.459 245.696C193.143 245.203 192.729 244.839 192.217 244.602C191.704 244.366 191.149 244.271 190.551 244.319C189.941 244.367 189.402 244.548 188.933 244.862C188.476 245.175 188.124 245.6 187.878 246.137C187.642 246.661 187.551 247.252 187.603 247.91C187.655 248.568 187.838 249.143 188.154 249.636C188.481 250.116 188.895 250.48 189.396 250.729C189.908 250.966 190.469 251.06 191.079 251.012ZM209.471 250.409C209.236 250.644 208.939 250.836 208.577 250.985C208.215 251.122 207.836 251.206 207.441 251.237C206.484 251.312 205.722 251.114 205.155 250.641C204.589 250.168 204.267 249.453 204.192 248.496L203.779 243.274L202.164 243.402L202.053 241.984L203.668 241.857L203.503 239.775L205.226 239.639L205.39 241.721L208.118 241.505L208.23 242.923L205.502 243.138L205.909 248.288C205.949 248.803 206.106 249.188 206.379 249.443C206.664 249.697 207.046 249.806 207.524 249.768C208.05 249.726 208.487 249.541 208.835 249.213L209.471 250.409ZM215.364 250.611C214.418 250.686 213.553 250.544 212.766 250.185C211.979 249.825 211.342 249.298 210.853 248.602C210.376 247.894 210.101 247.073 210.027 246.14C209.953 245.206 210.097 244.359 210.458 243.596C210.83 242.82 211.377 242.199 212.099 241.733C212.819 241.255 213.652 240.978 214.597 240.904C215.542 240.829 216.402 240.972 217.177 241.332C217.963 241.679 218.594 242.207 219.071 242.916C219.56 243.612 219.841 244.426 219.914 245.359C219.988 246.292 219.839 247.147 219.467 247.922C219.106 248.685 218.565 249.306 217.844 249.784C217.135 250.261 216.309 250.537 215.364 250.611ZM215.245 249.104C215.855 249.056 216.388 248.875 216.845 248.563C217.313 248.237 217.664 247.812 217.9 247.288C218.134 246.751 218.226 246.154 218.174 245.496C218.122 244.839 217.938 244.269 217.624 243.788C217.308 243.296 216.894 242.931 216.382 242.695C215.881 242.457 215.326 242.363 214.716 242.411C214.106 242.459 213.567 242.64 213.098 242.954C212.641 243.267 212.289 243.692 212.043 244.229C211.807 244.753 211.716 245.344 211.768 246.002C211.82 246.66 212.003 247.235 212.319 247.728C212.646 248.208 213.06 248.572 213.561 248.822C214.073 249.058 214.634 249.152 215.245 249.104ZM233.37 249.226C232.114 249.325 230.956 249.14 229.896 248.67C228.846 248.187 227.996 247.484 227.346 246.56C226.694 245.624 226.32 244.546 226.224 243.326C226.127 242.106 226.328 240.989 226.826 239.974C227.323 238.948 228.058 238.12 229.031 237.489C230.003 236.847 231.118 236.476 232.374 236.377C233.355 236.299 234.265 236.396 235.105 236.667C235.944 236.925 236.676 237.355 237.301 237.956L236.224 239.178C235.201 238.26 233.983 237.857 232.572 237.968C231.639 238.042 230.812 238.318 230.091 238.796C229.371 239.274 228.824 239.901 228.452 240.677C228.091 241.439 227.946 242.275 228.018 243.185C228.09 244.094 228.364 244.903 228.842 245.611C229.33 246.307 229.967 246.834 230.754 247.194C231.541 247.553 232.401 247.696 233.334 247.622C234.733 247.511 235.872 246.916 236.75 245.836L238.005 246.874C237.482 247.565 236.821 248.111 236.022 248.511C235.235 248.91 234.351 249.149 233.37 249.226ZM243.041 238.658C244.357 238.554 245.387 238.798 246.132 239.389C246.889 239.979 247.318 240.915 247.419 242.195L247.872 247.937L246.239 248.066L246.14 246.81C245.888 247.275 245.502 247.648 244.983 247.93C244.474 248.199 243.855 248.362 243.126 248.42C242.061 248.504 241.185 248.314 240.499 247.851C239.824 247.386 239.454 246.736 239.388 245.898C239.322 245.061 239.574 244.367 240.144 243.816C240.714 243.254 241.662 242.92 242.99 242.815L245.718 242.6L245.691 242.259C245.632 241.517 245.372 240.966 244.91 240.605C244.448 240.244 243.799 240.097 242.961 240.163C242.399 240.208 241.856 240.347 241.333 240.581C240.809 240.803 240.374 241.084 240.028 241.424L239.208 240.189C239.667 239.755 240.23 239.41 240.895 239.153C241.56 238.883 242.276 238.719 243.041 238.658ZM243.308 247.069C243.966 247.017 244.523 246.829 244.979 246.504C245.434 246.167 245.747 245.721 245.92 245.166L245.815 243.838L243.16 244.048C241.7 244.163 241.009 244.711 241.087 245.692C241.124 246.17 241.34 246.533 241.732 246.778C242.125 247.024 242.65 247.121 243.308 247.069ZM252.086 239.641C252.342 239.068 252.752 238.614 253.315 238.28C253.879 237.947 254.579 237.747 255.417 237.681L255.548 239.35C255.452 239.346 255.32 239.35 255.152 239.363C254.219 239.437 253.505 239.776 253.012 240.381C252.529 240.973 252.328 241.783 252.409 242.812L252.783 247.549L251.06 247.685L250.31 238.175L251.96 238.044L252.086 239.641ZM263.987 246.105C263.752 246.34 263.454 246.532 263.093 246.681C262.731 246.818 262.352 246.902 261.957 246.933C261 247.009 260.238 246.81 259.671 246.337C259.104 245.864 258.783 245.149 258.708 244.192L258.295 238.971L256.68 239.098L256.569 237.681L258.183 237.553L258.019 235.472L259.742 235.336L259.906 237.417L262.634 237.202L262.746 238.619L260.018 238.835L260.425 243.985C260.465 244.499 260.622 244.884 260.895 245.139C261.18 245.394 261.562 245.502 262.04 245.464C262.566 245.423 263.003 245.238 263.35 244.909L263.987 246.105Z" fill="#262626"/>
<path d="M169.154 283.338C165.805 283.602 163.126 281.39 162.868 278.12C162.61 274.85 164.908 272.245 168.274 271.98C169.901 271.851 171.411 272.278 172.485 273.284L171.795 274.093C170.813 273.24 169.665 272.929 168.389 273.03C165.693 273.243 163.823 275.38 164.033 278.028C164.242 280.676 166.423 282.494 169.119 282.281C170.395 282.18 171.48 281.693 172.315 280.681L173.124 281.371C172.221 282.534 170.797 283.208 169.154 283.338ZM179.13 273.947C181.172 273.786 182.669 274.856 182.859 277.264L183.243 282.129L182.11 282.219L181.735 277.465C181.595 275.695 180.598 274.859 179.003 274.985C177.201 275.127 176.157 276.333 176.308 278.247L176.655 282.649L175.523 282.739L174.589 270.903L175.721 270.814L176.109 275.727C176.654 274.705 177.711 274.059 179.13 273.947ZM189.753 281.695C187.297 281.889 185.337 280.246 185.141 277.758C184.944 275.27 186.623 273.356 189.079 273.162C191.536 272.968 193.478 274.596 193.674 277.085C193.871 279.573 192.209 281.502 189.753 281.695ZM189.674 280.691C191.46 280.55 192.681 279.137 192.526 277.175C192.371 275.213 190.944 274.01 189.157 274.151C187.371 274.292 186.134 275.706 186.289 277.668C186.444 279.629 187.887 280.832 189.674 280.691ZM199.753 280.906C197.297 281.1 195.337 279.457 195.141 276.969C194.945 274.48 196.623 272.566 199.08 272.373C201.536 272.179 203.478 273.807 203.674 276.295C203.871 278.783 202.21 280.712 199.753 280.906ZM199.674 279.901C201.46 279.76 202.681 278.348 202.526 276.386C202.371 274.424 200.944 273.22 199.158 273.361C197.371 273.502 196.135 274.916 196.289 276.878C196.444 278.84 197.887 280.042 199.674 279.901ZM208.573 280.21C207.185 280.319 205.81 279.978 205.078 279.442L205.518 278.509C206.229 278.982 207.394 279.308 208.575 279.214C210.17 279.089 210.781 278.495 210.715 277.665C210.543 275.48 205.24 277.632 204.978 274.314C204.87 272.943 205.969 271.829 208.107 271.66C209.191 271.574 210.396 271.784 211.135 272.207L210.712 273.155C209.938 272.703 209.045 272.565 208.183 272.633C206.668 272.752 206.045 273.396 206.108 274.193C206.287 276.458 211.591 274.322 211.845 277.544C211.96 278.995 210.758 280.037 208.573 280.21ZM221.112 274.919C221.119 275.014 221.113 275.143 221.123 275.271L214.105 275.825C214.371 277.569 215.803 278.628 217.637 278.483C218.658 278.402 219.538 277.964 220.118 277.18L220.814 277.863C220.135 278.815 219.009 279.386 217.685 279.49C215.069 279.697 213.141 278.051 212.945 275.563C212.749 273.075 214.347 271.167 216.708 270.981C219.069 270.795 220.913 272.398 221.112 274.919ZM216.785 271.954C215.158 272.082 214.052 273.325 214.038 274.979L219.988 274.51C219.715 272.878 218.428 271.824 216.785 271.954ZM233.194 269.744L234.31 269.656L230.857 279.381C230.285 281.08 229.433 281.677 228.237 281.771C227.455 281.833 226.685 281.637 226.135 281.167L226.594 280.28C227.042 280.662 227.57 280.845 228.176 280.797C228.926 280.738 229.408 280.346 229.804 279.256L230.106 278.414L225.697 270.335L226.877 270.242L230.598 277.123L233.194 269.744ZM239.769 277.747C237.313 277.941 235.354 276.298 235.157 273.81C234.961 271.321 236.639 269.407 239.096 269.214C241.552 269.02 243.494 270.648 243.691 273.136C243.887 275.624 242.226 277.553 239.769 277.747ZM239.69 276.742C241.476 276.601 242.697 275.189 242.542 273.227C242.387 271.265 240.96 270.061 239.174 270.202C237.387 270.343 236.151 271.757 236.306 273.719C236.46 275.681 237.904 276.883 239.69 276.742ZM252.099 268.251L253.232 268.162L253.894 276.552L252.81 276.637L252.689 275.106C252.179 276.173 251.141 276.849 249.801 276.955C247.664 277.124 246.166 276.038 245.976 273.63L245.592 268.765L246.724 268.675L247.099 273.429C247.24 275.215 248.237 276.051 249.832 275.925C251.587 275.787 252.598 274.568 252.447 272.653L252.099 268.251ZM257.618 269.469C258.056 268.311 259.078 267.636 260.626 267.514L260.712 268.614C260.617 268.622 260.52 268.614 260.44 268.62C258.685 268.758 257.705 269.959 257.861 271.937L258.199 276.212L257.066 276.301L256.404 267.911L257.488 267.826L257.618 269.469ZM269.553 264.289C268.58 264.366 268.112 264.949 268.194 265.986L268.272 266.974L270.856 266.77L270.932 267.727L268.38 267.929L268.966 275.362L267.834 275.451L267.247 268.018L265.748 268.137L265.672 267.18L267.172 267.061L267.09 266.025C266.971 264.525 267.787 263.466 269.429 263.336C270.051 263.287 270.703 263.412 271.146 263.73L270.83 264.606C270.489 264.36 270.031 264.252 269.553 264.289ZM275.159 266.367C277.329 266.195 278.642 267.183 278.814 269.352L279.224 274.552L278.139 274.638L278.036 273.33C277.594 274.231 276.646 274.836 275.259 274.945C273.361 275.095 272.118 274.198 272.004 272.747C271.902 271.455 272.645 270.305 275.054 270.114L277.718 269.904L277.677 269.394C277.564 267.958 276.689 267.241 275.126 267.364C274.041 267.45 273.05 267.913 272.412 268.574L271.835 267.768C272.624 266.984 273.835 266.471 275.159 266.367ZM275.364 274.038C276.64 273.938 277.533 273.257 277.893 272.121L277.784 270.75L275.153 270.957C273.526 271.086 273.05 271.765 273.118 272.627C273.194 273.6 274.024 274.144 275.364 274.038ZM287.415 265.463L288.532 265.375L285.462 274.06L284.298 274.152L279.919 266.055L281.099 265.962L284.805 272.86L287.415 265.463ZM293.991 273.467C291.535 273.66 289.575 272.018 289.379 269.529C289.183 267.041 290.861 265.127 293.318 264.933C295.774 264.739 297.716 266.367 297.913 268.856C298.109 271.344 296.448 273.273 293.991 273.467ZM293.912 272.462C295.698 272.321 296.919 270.908 296.764 268.946C296.609 266.984 295.182 265.781 293.396 265.922C291.609 266.063 290.373 267.477 290.527 269.439C290.682 271.401 292.125 272.603 293.912 272.462ZM301.108 266.035C301.546 264.877 302.568 264.203 304.115 264.081L304.202 265.181C304.106 265.189 304.009 265.18 303.93 265.187C302.175 265.325 301.195 266.526 301.351 268.504L301.688 272.779L300.556 272.868L299.893 264.478L300.978 264.393L301.108 266.035ZM306.6 262.103C306.138 262.139 305.742 261.802 305.707 261.355C305.673 260.924 306.01 260.528 306.473 260.492C306.936 260.455 307.33 260.777 307.364 261.208C307.401 261.671 307.079 262.065 306.6 262.103ZM306.833 272.372L306.171 263.983L307.303 263.893L307.966 272.283L306.833 272.372ZM315.032 270.393L315.495 271.175C315.079 271.609 314.425 271.853 313.771 271.905C312.192 272.03 311.244 271.206 311.122 269.659L310.721 264.586L309.222 264.705L309.146 263.748L310.646 263.629L310.501 261.795L311.633 261.706L311.778 263.54L314.33 263.338L314.406 264.295L311.854 264.497L312.249 269.505C312.327 270.494 312.88 270.996 313.821 270.922C314.284 270.885 314.735 270.705 315.032 270.393ZM324.291 266.773C324.298 266.869 324.292 266.998 324.302 267.125L317.284 267.679C317.55 269.424 318.982 270.483 320.816 270.338C321.837 270.257 322.717 269.818 323.297 269.034L323.993 269.718C323.314 270.67 322.188 271.241 320.864 271.345C318.248 271.552 316.32 269.906 316.124 267.418C315.928 264.93 317.526 263.022 319.887 262.836C322.248 262.649 324.092 264.253 324.291 266.773ZM319.964 263.809C318.337 263.937 317.231 265.18 317.217 266.834L323.167 266.364C322.894 264.733 321.607 263.679 319.964 263.809ZM329.182 270.688C327.794 270.798 326.419 270.457 325.687 269.921L326.127 268.988C326.838 269.461 328.003 269.786 329.184 269.693C330.779 269.567 331.39 268.973 331.325 268.144C331.152 265.959 325.849 268.111 325.587 264.793C325.479 263.421 326.578 262.307 328.716 262.139C329.8 262.053 331.005 262.263 331.744 262.686L331.322 263.634C330.548 263.182 329.654 263.044 328.793 263.112C327.277 263.231 326.654 263.874 326.717 264.672C326.896 266.937 332.2 264.801 332.454 268.023C332.569 269.474 331.367 270.516 329.182 270.688ZM341.173 261.155C343.342 260.984 344.656 261.972 344.827 264.141L345.237 269.341L344.153 269.426L344.05 268.118C343.607 269.02 342.66 269.624 341.272 269.734C339.374 269.884 338.132 268.987 338.017 267.535C337.915 266.243 338.659 265.093 341.067 264.903L343.731 264.693L343.691 264.182C343.577 262.747 342.702 262.03 341.139 262.153C340.054 262.239 339.064 262.702 338.426 263.362L337.849 262.557C338.637 261.773 339.849 261.26 341.173 261.155ZM341.377 268.827C342.653 268.726 343.546 268.046 343.906 266.91L343.798 265.538L341.166 265.746C339.539 265.874 339.063 266.554 339.131 267.415C339.208 268.388 340.037 268.933 341.377 268.827ZM351.921 260.307C353.962 260.146 355.459 261.215 355.649 263.624L356.033 268.488L354.901 268.578L354.526 263.825C354.386 262.054 353.389 261.218 351.794 261.344C349.992 261.486 348.947 262.692 349.098 264.606L349.446 269.008L348.313 269.098L347.651 260.708L348.736 260.622L348.858 262.17C349.383 261.101 350.469 260.421 351.921 260.307ZM364.697 255.896L365.83 255.806L366.764 267.641L365.679 267.727L365.549 266.068C364.952 267.255 363.836 267.953 362.448 268.062C360.055 268.251 358.132 266.654 357.931 264.118C357.731 261.581 359.382 259.718 361.774 259.529C363.114 259.423 364.308 259.907 365.095 260.936L364.697 255.896ZM362.464 267.05C364.235 266.91 365.471 265.496 365.316 263.535C365.162 261.573 363.718 260.37 361.948 260.51C360.162 260.651 358.925 262.065 359.08 264.027C359.235 265.989 360.678 267.191 362.464 267.05ZM377.576 266.868C375.072 267.066 373.114 265.439 372.916 262.935C372.718 260.43 374.398 258.532 376.902 258.335C378.322 258.223 379.562 258.686 380.319 259.734L379.519 260.375C378.878 259.575 377.953 259.247 376.98 259.324C375.146 259.468 373.91 260.882 374.064 262.844C374.221 264.822 375.662 266.008 377.497 265.863C378.47 265.786 379.333 265.333 379.84 264.442L380.731 264.95C380.147 266.087 378.996 266.756 377.576 266.868ZM386.563 257.572C388.605 257.411 390.101 258.48 390.292 260.889L390.676 265.754L389.543 265.843L389.168 261.09C389.028 259.319 388.031 258.483 386.436 258.609C384.634 258.751 383.589 259.957 383.741 261.871L384.088 266.274L382.956 266.363L382.021 254.528L383.154 254.439L383.542 259.351C384.087 258.329 385.143 257.684 386.563 257.572ZM400.74 260.738C400.748 260.834 400.742 260.963 400.752 261.09L393.734 261.644C394 263.389 395.432 264.447 397.266 264.303C398.287 264.222 399.167 263.783 399.747 262.999L400.443 263.683C399.764 264.635 398.637 265.205 397.313 265.31C394.698 265.516 392.77 263.871 392.574 261.383C392.377 258.894 393.976 256.987 396.337 256.8C398.697 256.614 400.541 258.218 400.74 260.738ZM396.413 257.773C394.787 257.902 393.681 259.145 393.667 260.799L399.617 260.329C399.343 258.698 398.056 257.644 396.413 257.773ZM406.86 264.556C404.356 264.754 402.398 263.127 402.2 260.623C402.002 258.119 403.682 256.221 406.186 256.023C407.606 255.911 408.846 256.375 409.603 257.422L408.803 258.063C408.162 257.263 407.237 256.935 406.264 257.012C404.43 257.157 403.193 258.57 403.348 260.532C403.504 262.51 404.946 263.696 406.781 263.551C407.754 263.475 408.617 263.021 409.124 262.131L410.015 262.638C409.43 263.776 408.28 264.444 406.86 264.556ZM418.731 263.539L415.017 259.595L413.183 261.569L413.372 263.962L412.24 264.051L411.305 252.216L412.438 252.127L413.071 260.15L417.718 255.177L419.122 255.066L415.804 258.779L420.119 263.429L418.731 263.539ZM429.429 262.775C426.973 262.968 425.013 261.326 424.817 258.837C424.621 256.349 426.299 254.435 428.756 254.241C431.212 254.047 433.154 255.675 433.351 258.164C433.547 260.652 431.886 262.581 429.429 262.775ZM429.35 261.77C431.136 261.629 432.357 260.216 432.202 258.254C432.047 256.292 430.62 255.089 428.834 255.23C427.047 255.371 425.811 256.785 425.965 258.747C426.12 260.709 427.563 261.911 429.35 261.77ZM441.759 253.279L442.892 253.189L443.554 261.579L442.47 261.665L442.349 260.134C441.839 261.201 440.801 261.877 439.461 261.983C437.324 262.151 435.826 261.066 435.636 258.657L435.252 253.793L436.384 253.703L436.759 258.456C436.9 260.243 437.897 261.079 439.492 260.953C441.247 260.814 442.258 259.595 442.107 257.681L441.759 253.279ZM450.641 259.688L451.104 260.47C450.689 260.904 450.034 261.148 449.38 261.2C447.801 261.324 446.853 260.5 446.731 258.953L446.331 253.881L444.831 253.999L444.756 253.042L446.255 252.924L446.11 251.09L447.243 251L447.388 252.834L449.94 252.633L450.015 253.59L447.463 253.791L447.858 258.8C447.937 259.789 448.49 260.291 449.431 260.217C449.893 260.18 450.345 260 450.641 259.688ZM459.636 260.39C458.248 260.5 456.873 260.159 456.14 259.623L456.58 258.689C457.292 259.163 458.457 259.488 459.637 259.395C461.232 259.269 461.843 258.675 461.778 257.845C461.606 255.66 456.302 257.812 456.041 254.495C455.932 253.123 457.032 252.009 459.169 251.84C460.254 251.755 461.458 251.964 462.198 252.388L461.775 253.336C461.001 252.883 460.107 252.745 459.246 252.813C457.731 252.933 457.108 253.576 457.17 254.373C457.349 256.638 462.654 254.502 462.908 257.724C463.023 259.176 461.821 260.217 459.636 260.39ZM472.174 255.099C472.182 255.195 472.176 255.323 472.186 255.451L465.168 256.005C465.434 257.749 466.866 258.808 468.7 258.663C469.721 258.583 470.601 258.144 471.181 257.36L471.877 258.043C471.198 258.996 470.071 259.566 468.747 259.671C466.132 259.877 464.204 258.232 464.008 255.744C463.811 253.255 465.41 251.347 467.771 251.161C470.131 250.975 471.975 252.579 472.174 255.099ZM467.847 252.134C466.221 252.263 465.115 253.505 465.101 255.16L471.051 254.69C470.777 253.058 469.49 252.004 467.847 252.134ZM478.294 258.917C475.79 259.115 473.832 257.488 473.634 254.984C473.436 252.479 475.116 250.581 477.62 250.384C479.04 250.272 480.28 250.735 481.037 251.783L480.237 252.424C479.596 251.624 478.671 251.296 477.698 251.373C475.864 251.517 474.627 252.931 474.782 254.893C474.939 256.871 476.38 258.057 478.215 257.912C479.188 257.835 480.051 257.382 480.558 256.491L481.449 256.999C480.864 258.136 479.714 258.805 478.294 258.917ZM489.564 249.505L490.696 249.416L491.359 257.805L490.274 257.891L490.153 256.36C489.644 257.427 488.605 258.103 487.266 258.209C485.128 258.378 483.63 257.292 483.44 254.884L483.056 250.019L484.189 249.929L484.564 254.682C484.705 256.469 485.702 257.305 487.297 257.179C489.051 257.041 490.062 255.821 489.911 253.907L489.564 249.505ZM495.082 250.722C495.521 249.564 496.543 248.89 498.09 248.768L498.177 249.868C498.081 249.876 497.984 249.867 497.904 249.874C496.15 250.012 495.169 251.213 495.325 253.191L495.663 257.466L494.53 257.555L493.868 249.165L494.953 249.08L495.082 250.722ZM507.72 252.293C507.727 252.388 507.722 252.517 507.732 252.645L500.713 253.199C500.98 254.943 502.411 256.002 504.246 255.857C505.266 255.777 506.147 255.338 506.727 254.554L507.423 255.237C506.744 256.19 505.617 256.76 504.293 256.865C501.677 257.071 499.75 255.426 499.553 252.937C499.357 250.449 500.956 248.541 503.316 248.355C505.677 248.169 507.521 249.773 507.72 252.293ZM503.393 249.328C501.766 249.456 500.661 250.699 500.647 252.354L506.596 251.884C506.323 250.252 505.036 249.198 503.393 249.328ZM510.356 256.306L509.422 244.471L510.554 244.381L511.489 256.216L510.356 256.306ZM519.911 247.109L521.027 247.021L517.574 256.747C517.002 258.445 516.15 259.042 514.954 259.137C514.172 259.198 513.403 259.002 512.852 258.532L513.312 257.645C513.759 258.027 514.287 258.21 514.893 258.162C515.643 258.103 516.126 257.712 516.521 256.622L516.824 255.779L512.414 247.701L513.595 247.608L517.316 254.488L519.911 247.109ZM522.857 255.399C522.395 255.436 521.982 255.083 521.943 254.589C521.904 254.094 522.258 253.697 522.72 253.66C523.183 253.624 523.61 253.959 523.649 254.454C523.689 254.948 523.32 255.363 522.857 255.399Z" fill="#545454"/>
</g>
<rect x="46.5378" y="219.192" width="542" height="102" rx="9.5" transform="rotate(-4.51376 46.5378 219.192)" stroke="#CCCCCC"/>
</g>
</g>
<defs>
<filter id="filter0_i_579_159" x="0" y="0" width="612" height="460" filterUnits="userSpaceOnUse" color-interpolation-filters="sRGB">
<feFlood flood-opacity="0" result="BackgroundImageFix"/>
<feBlend mode="normal" in="SourceGraphic" in2="BackgroundImageFix" result="shape"/>
<feColorMatrix in="SourceAlpha" type="matrix" values="0 0 0 0 0 0 0 0 0 0 0 0 0 0 0 0 0 0 127 0" result="hardAlpha"/>
<feOffset dy="4"/>
<feGaussianBlur stdDeviation="2"/>
<feComposite in2="hardAlpha" operator="arithmetic" k2="-1" k3="1"/>
<feColorMatrix type="matrix" values="0 0 0 0 0.24274 0 0 0 0 0.369792 0 0 0 0 0.130208 0 0 0 1 0"/>
<feBlend mode="normal" in2="shape" result="effect1_innerShadow_579_159"/>
</filter>
<filter id="filter1_f_579_159" x="-116.666" y="-78.8501" width="486.671" height="276.005" filterUnits="userSpaceOnUse" color-interpolation-filters="sRGB">
<feFlood flood-opacity="0" result="BackgroundImageFix"/>
<feBlend mode="normal" in="SourceGraphic" in2="BackgroundImageFix" result="shape"/>
<feGaussianBlur stdDeviation="47.5" result="effect1_foregroundBlur_579_159"/>
</filter>
<filter id="filter2_f_579_159" x="403.758" y="-78.5978" width="417.244" height="234.575" filterUnits="userSpaceOnUse" color-interpolation-filters="sRGB">
<feFlood flood-opacity="0" result="BackgroundImageFix"/>
<feBlend mode="normal" in="SourceGraphic" in2="BackgroundImageFix" result="shape"/>
<feGaussianBlur stdDeviation="40" result="effect1_foregroundBlur_579_159"/>
</filter>
<filter id="filter3_f_579_159" x="105.007" y="-35.8501" width="399.722" height="261.517" filterUnits="userSpaceOnUse" color-interpolation-filters="sRGB">
<feFlood flood-opacity="0" result="BackgroundImageFix"/>
<feBlend mode="normal" in="SourceGraphic" in2="BackgroundImageFix" result="shape"/>
<feGaussianBlur stdDeviation="47.5" result="effect1_foregroundBlur_579_159"/>
</filter>
<clipPath id="clip0_579_159">
<rect width="612" height="456" rx="10" fill="white"/>
</clipPath>
<clipPath id="clip1_579_159">
<rect x="46" y="218.733" width="543" height="103" rx="10" transform="rotate(-4.51376 46 218.733)" fill="white"/>
</clipPath>
</defs>
</svg>
